<?xml version="1.0" encoding="UTF-8" standalone="no"?>
<svg
   viewBox="0 0 20.00024 20.00024"
   fill="none"
   stroke="#000000"
   stroke-width="0.00024"
   version="1.1"
   id="svg2"
   sodipodi:docname="eight.svg"
   width="20.00024"
   height="20.00024"
   inkscape:version="1.3 (0e150ed6c4, 2023-07-21)"
   xmlns:inkscape="http://www.inkscape.org/namespaces/inkscape"
   xmlns:sodipodi="http://sodipodi.sourceforge.net/DTD/sodipodi-0.dtd"
   xmlns="http://www.w3.org/2000/svg"
   xmlns:svg="http://www.w3.org/2000/svg">
  <defs
     id="defs2" />
  <sodipodi:namedview
     id="namedview2"
     pagecolor="#505050"
     bordercolor="#ffffff"
     borderopacity="1"
     inkscape:showpageshadow="0"
     inkscape:pageopacity="0"
     inkscape:pagecheckerboard="1"
     inkscape:deskcolor="#505050"
     inkscape:zoom="34.041667"
     inkscape:cx="10.002448"
     inkscape:cy="10.002448"
     inkscape:window-width="1920"
     inkscape:window-height="1009"
     inkscape:window-x="-8"
     inkscape:window-y="-8"
     inkscape:window-maximized="1"
     inkscape:current-layer="SVGRepo_iconCarrier" />
  <g
     id="SVGRepo_bgCarrier"
     stroke-width="0"
     transform="translate(-1.99988,-1.99988)" />
  <g
     id="SVGRepo_tracerCarrier"
     stroke-linecap="round"
     stroke-linejoin="round"
     transform="translate(-1.99988,-1.99988)" />
  <g
     id="SVGRepo_iconCarrier"
     transform="translate(-1.99988,-1.99988)">
    <path
       fill-rule="evenodd"
       clip-rule="evenodd"
       d="m 15.2822,10.9775 c 0.2416,-0.3737 0.3623,-0.802 0.3623,-1.28512 0,-0.85677 -0.2848,-1.53353 -0.8545,-2.03027 -0.5651,-0.5013 -1.3307,-0.75195 -2.2968,-0.75195 -0.9707,0 -1.7386,0.25293 -2.3037,0.75879 -0.56515,0.5013 -0.8477,1.17578 -0.8477,2.02343 0,0.48312 0.11849,0.91142 0.35547,1.28512 0.24153,0.3737 0.57423,0.6722 0.99803,0.8955 -0.4785,0.2279 -0.85904,0.5469 -1.14159,0.9571 -0.28255,0.4101 -0.42383,0.8909 -0.42383,1.4424 0,0.8795 0.30306,1.5768 0.90922,2.0918 0.6061,0.5149 1.4264,0.7724 2.4609,0.7724 1.0345,0 1.8525,-0.2552 2.4541,-0.7656 0.6016,-0.515 0.9023,-1.2145 0.9023,-2.0986 0,-0.5515 -0.1412,-1.03 -0.4238,-1.4356 -0.2825,-0.4101 -0.6653,-0.7314 -1.1484,-0.9639 0.4238,-0.2233 0.7565,-0.5218 0.998,-0.8955 z m -1.7842,2.1123 c 0.2507,0.2598 0.376,0.6062 0.376,1.0391 0,0.4421 -0.123,0.7884 -0.3691,1.0391 -0.2416,0.2506 -0.5765,0.3759 -1.0049,0.3759 -0.4375,0 -0.7793,-0.1298 -1.0254,-0.3896 -0.2461,-0.2598 -0.3691,-0.6016 -0.3691,-1.0254 0,-0.4375 0.1253,-0.7838 0.3759,-1.0391 0.2507,-0.2597 0.5857,-0.3896 1.0049,-0.3896 0.4239,0 0.7611,0.1299 1.0117,0.3896 z M 13.3613,8.8584 c 0.2051,0.23242 0.3076,0.54232 0.3076,0.92969 0,0.39651 -0.1025,0.71551 -0.3076,0.95701 -0.2005,0.2416 -0.4876,0.3623 -0.8613,0.3623 -0.3737,0 -0.6631,-0.1207 -0.8682,-0.3623 -0.205,-0.2415 -0.3076,-0.5605 -0.3076,-0.95701 0,-0.40105 0.1026,-0.7155 0.3076,-0.94336 0.2051,-0.22787 0.4922,-0.3418 0.8614,-0.3418 0.3737,0 0.663,0.11849 0.8681,0.35547 z"
       fill="#ba181b"
       id="path1" />
    <path
       fill-rule="evenodd"
       clip-rule="evenodd"
       d="M 2,2 H 22 V 22 H 2 Z M 4,4 H 20 V 20 H 4 Z"
       fill="#ba181b"
       id="path2" />
  </g>
</svg>
